<?xml version="1.0" encoding="UTF-8"?>
<svg width="248px" height="50px" viewBox="0 0 248 50" version="1.1" xmlns="http://www.w3.org/2000/svg" xmlns:xlink="http://www.w3.org/1999/xlink">
    <title>cni-logo-wh_notagline</title>
    <g id="cni-logo-wh_notagline" stroke="none" stroke-width="1" fill="none" fill-rule="evenodd">
        <path d="M132.523851,34.0907173 C135.594759,34.0865299 138.373596,36.5727921 138.373596,40.3881356 C138.373596,44.4843889 135.619793,47 132.302712,47 C128.985631,47 126.398725,44.3418376 126.398725,40.6774309 C126.398725,37.2603925 128.689388,34.0907173 132.523851,34.0907173 Z M144.381894,34.3716325 L151.98406,43.9016057 L152.038302,43.9016057 L152.038302,39.2309545 C152.063805,38.178277 152.020597,37.1250518 151.908957,36.0780553 C151.821753,35.2495807 151.440831,34.984907 150.311869,34.9137797 L150.127329,34.9041035 L150.127329,34.3716325 L154.416587,34.3716325 L154.412414,34.9041035 C153.394341,34.9586084 152.960409,35.2059768 152.885305,36.0235504 C152.808532,36.8765472 152.769998,37.7324747 152.76979,38.5887363 L152.776822,39.2309545 L152.776822,46.8867975 L152.213544,46.8867975 L144.473688,36.9375558 L144.440308,36.9375558 L144.440308,41.7549509 C144.422939,42.825237 144.459146,43.8957237 144.548792,44.962355 C144.62014,45.8665076 145.000269,46.1160457 146.111305,46.2070385 L146.292867,46.2201606 L146.292867,46.7484389 L141.982748,46.7484389 L141.982748,46.2201606 C143.021683,46.1404996 143.493167,45.8931311 143.584961,44.962355 C143.636011,44.4099071 143.687062,43.5529165 143.692892,42.0138725 L143.693144,37.1284314 C143.690207,36.1197963 143.658966,36.0281844 143.330442,35.6042819 C142.991513,35.1669526 142.627697,35.0047031 141.900976,34.9229715 L141.71154,34.9041035 L141.71154,34.3716325 L144.381894,34.3716325 Z M76.0708844,34.3213202 L83.6647055,43.8512935 L83.7231195,43.8512935 L83.7231195,39.2309545 C83.7463414,38.1782976 83.7031397,37.12522 83.5937742,36.0780553 C83.5019807,35.2059768 83.0847378,34.9586084 81.8121469,34.9041035 L81.8121469,34.3716325 L86.1014041,34.3716325 L86.1014041,34.9041035 C85.0833314,34.9586084 84.6493987,35.2059768 84.574295,36.0235504 C84.4783292,37.0897964 84.4421109,38.1606217 84.4658119,39.2309545 L84.4658119,46.8826048 L83.9025339,46.8826048 L76.1626779,36.9375558 L76.125126,36.9375558 L76.125126,41.7046387 C76.125126,43.4487957 76.1793676,44.3628011 76.2336092,44.9120428 C76.3254026,45.8805531 76.7426455,46.1069581 77.9776845,46.1698483 L77.9776845,46.6981267 L73.6717377,46.6981267 L73.6717377,46.1698483 C74.7106725,46.1111508 75.182157,45.8637823 75.269778,44.9120428 C75.3208289,44.3595949 75.3718798,43.5026043 75.3777092,41.9635603 L75.3782612,37.4742194 C75.3782612,36.0864407 75.3448817,35.9900089 75.0152598,35.5539697 C74.6856379,35.1179304 74.2558777,34.9292596 73.4005298,34.8537913 L73.4005298,34.3213202 L76.0708844,34.3213202 Z M103.362743,33.8978591 C103.617262,34.3171276 103.85509,34.3716325 104.359954,34.3716325 L111.540705,34.3716325 C111.910346,34.4136247 112.268424,34.2262552 112.446122,33.8978591 L112.829985,33.8978591 C112.829985,34.7699376 112.921779,36.1577163 113.030262,37.2520071 L112.479501,37.3148974 C112.397768,36.7253948 112.206704,36.1565317 111.916223,35.6378234 C111.607463,35.1850134 111.315393,35.0340767 109.934319,35.0340767 L108.661729,35.0340767 L108.661729,44.3921499 C108.661729,45.8931311 108.811936,46.0692239 110.518459,46.1991971 L110.518459,46.7274755 L105.319613,46.7274755 L105.319613,46.1991971 C106.928978,46.0859946 107.106727,45.9065167 107.117371,44.5480042 L107.11793,35.017306 L105.995546,35.017306 C104.489299,35.017306 104.126298,35.1892061 103.88847,35.6042819 C103.614469,36.1435716 103.419144,36.7196837 103.308502,37.3148974 L102.782776,37.3148974 C102.870397,36.1744871 102.96219,34.9418376 102.999742,33.8978591 L103.362743,33.8978591 Z M122.238813,34.3716325 L122.238813,34.9041035 C120.802454,35.013263 120.615365,35.1224226 120.603834,36.5774192 L120.603221,44.337645 C120.603221,45.9727921 120.749256,46.0650312 122.238813,46.1824264 L122.238813,46.7107047 L117.42383,46.7107047 L117.42383,46.1824264 C118.860188,46.0692239 119.047277,45.95992 119.058809,44.5049182 L119.059422,36.7446922 C119.059422,35.1305085 118.913387,35.017306 117.42383,34.9041035 L117.42383,34.3716325 L122.238813,34.3716325 Z M94.9636436,34.0781445 C96.0901995,37.3232828 97.3085488,40.9499554 98.4684841,44.2537913 C99.0359345,45.8847458 99.3029699,46.0566459 100.467078,46.174041 L100.467078,46.7023194 L96.0401303,46.7107047 L96.0401303,46.1824264 C97.1875483,46.0272971 97.3502731,45.8763604 97.1124446,45.1384478 C96.8746162,44.4005352 96.5157873,43.3691347 96.1152341,42.2035682 L92.2265301,42.2035682 C91.9386325,43.0421053 91.6632522,43.8554862 91.4295961,44.6520963 C91.0457326,45.8512043 91.1917677,46.0398751 92.5728417,46.174041 L92.5728417,46.7023194 L88.6132064,46.7023194 L88.6132064,46.174041 C89.7773142,46.0021409 90.0276599,45.8847458 90.6451794,44.1992864 L94.4003657,34.2458519 L94.9636436,34.0781445 Z M193.645765,42.4341659 L194.53032,42.446744 C194.527333,43.078091 194.451728,43.706975 194.305009,44.3208742 C194.141845,44.9057374 193.812736,45.4302061 193.357868,45.8302409 C192.889049,46.2567857 192.275269,46.4863826 191.642999,46.4717217 C190.967768,46.4899411 190.306666,46.2754085 189.769579,45.8637823 C189.249561,45.4639446 188.881447,44.8972566 188.726471,44.2579839 C188.631707,43.7810834 188.578727,43.2969909 188.568018,42.8112613 L188.567919,42.446744 L189.464991,42.446744 C189.469164,42.9624442 189.498371,43.3062444 189.498371,43.4529884 C189.528644,43.8178614 189.635282,44.1721923 189.811303,44.4927743 C189.997404,44.7888242 190.257896,45.0303344 190.566513,45.1929527 C190.879253,45.3729173 191.232564,45.4696113 191.59293,45.4738626 C191.893368,45.4727581 192.188788,45.3963829 192.452451,45.2516503 C192.726867,45.1051677 192.962805,44.8953848 193.140902,44.6395183 C193.338558,44.3531351 193.480159,44.0315633 193.558144,43.6919715 C193.623991,43.2760949 193.653311,42.8552049 193.645765,42.4341659 Z M202.082417,42.4341659 L203.229835,42.4383586 C203.401301,42.8169327 203.496319,43.225928 203.509388,43.6416592 C203.518956,44.3725713 203.252016,45.0798756 202.762523,45.6206066 C202.312918,46.1590096 201.646925,46.4667 200.947516,46.4591436 C200.408038,46.4608535 199.883568,46.2807525 199.457959,45.947636 C198.980949,45.5435468 198.592955,45.0453885 198.317382,44.4850649 L198.206231,44.2412132 L198.973957,43.7087422 C199.513592,44.8631282 200.138065,45.4403211 200.847378,45.4403211 C201.463155,45.4322998 202.024499,45.0841884 202.307728,44.5347012 C202.447174,44.2625106 202.518765,43.960368 202.51635,43.6542373 C202.510963,43.288262 202.404032,42.9310612 202.20759,42.6228368 C202.174211,42.5641392 202.124141,42.4970562 202.082417,42.4341659 Z M242.730222,42.4341659 L243.865123,42.4425513 C244.036588,42.8211254 244.131607,43.2301207 244.144675,43.6458519 C244.159836,44.3734211 243.898761,45.0794979 243.4145,45.6206066 C242.964895,46.1590096 242.298902,46.4667 241.599494,46.4591436 C241.059909,46.461504 240.535233,46.2813323 240.109936,45.947636 C239.632926,45.5435468 239.244933,45.0453885 238.969359,44.4850649 L238.858208,44.2412132 L239.625935,43.7087422 C240.16835,44.8617306 240.790042,45.4403211 241.499355,45.4403211 C242.115132,45.4322998 242.676476,45.0841884 242.959706,44.5347012 C243.097165,44.2617757 243.168639,43.9601248 243.168327,43.6542373 C243.163838,43.3492579 243.088832,43.0503719 242.950273,42.7808442 L242.859567,42.6228368 L242.730222,42.4341659 Z M132.123298,34.7699376 C130.103842,34.7699376 128.251283,36.5727921 128.251283,40.1449599 C128.251283,43.7129349 130.124704,46.3123996 132.686576,46.3123996 C134.722721,46.3123996 136.521038,44.5472792 136.521038,40.8996432 C136.521038,36.8956289 134.522444,34.7699376 132.123298,34.7699376 Z M177.677879,42.4341659 L177.677879,45.2055308 L178.725159,45.2055308 C179.599063,45.250143 180.474565,45.1582075 181.32041,44.9330062 C182.001938,44.676955 182.570108,44.1848267 182.922623,43.5452275 C183.078398,43.2678077 183.199609,42.9725168 183.28375,42.6660279 L183.339865,42.4341659 L184.27449,42.446744 C184.19166,42.9384239 184.042879,43.4165511 183.832212,43.8680642 C183.505898,44.5936568 182.976805,45.2083445 182.309275,45.6373773 C181.582408,46.0193696 180.77518,46.2171595 179.957623,46.2155318 L179.684818,46.2075825 L176.814186,46.2075825 L176.814186,42.4341659 L177.677879,42.4341659 Z M231.594009,42.4341659 L231.594009,45.1636039 L235.829024,45.1636039 L235.829024,46.1950045 L230.692764,46.1950045 L230.692764,42.4341659 L231.594009,42.4341659 Z M209.805584,42.4341659 L209.805584,46.1950045 L208.883477,46.1950045 L208.883477,42.4341659 L209.805584,42.4341659 Z M170.388645,42.4341659 L171.369166,43.7464764 L171.369166,42.4341659 L172.257894,42.4341659 L172.257894,46.1950045 L172.057617,46.1950045 L169.237055,42.4341659 L170.388645,42.4341659 Z M218.801341,42.4341659 L221.308971,46.1950045 L220.194932,46.1950045 L217.687302,42.4341659 L218.801341,42.4341659 Z M160.725299,42.4341659 L160.725299,46.1950045 L159.819882,46.1950045 L159.819882,42.4341659 L160.725299,42.4341659 Z M166.091043,42.4341659 L166.091043,46.1950045 L165.160592,46.1950045 L165.160592,42.4341659 L166.091043,42.4341659 Z M226.249127,42.4341659 L226.249127,46.1950045 L225.347882,46.1950045 L225.347882,42.4341659 L226.249127,42.4341659 Z M216.435573,42.4341659 L216.435573,46.1950045 L215.534329,46.1950045 L215.534329,42.4341659 L216.435573,42.4341659 Z M94.0874335,37.0256021 L92.4893931,41.39438 L95.2557136,41.39438 L94.0874335,37.0256021 Z M160.725299,35.4365745 L160.725299,41.0128457 L159.819882,41.0128457 L159.819882,35.4365745 L160.725299,35.4365745 Z M165.360868,35.4365745 L169.52078,41.0002676 L168.365017,41.0002676 L166.095216,37.9815343 L166.095216,41.0044603 L165.160592,41.008653 L165.160592,35.4365745 L165.360868,35.4365745 Z M172.257894,35.4365745 L172.257894,41.0002676 L171.369166,41.0002676 L171.369166,35.4365745 L172.257894,35.4365745 Z M181.645859,35.8139161 C182.522982,36.1742404 183.248518,36.8292078 183.698694,37.667083 C184.160589,38.5366118 184.412918,39.5012793 184.437486,40.4836066 L184.437214,40.9918822 L183.515107,40.9918822 L183.515069,40.5265513 C183.490801,39.7233712 183.273896,38.9363184 182.880898,38.2330955 C182.490506,37.5446343 181.86492,37.0217745 181.120133,36.761463 C180.339249,36.5527513 179.53504,36.4481395 178.728168,36.4498588 L178.324606,36.4595897 L177.686224,36.4595897 L177.694569,40.9960749 L176.830876,40.9960749 L176.830876,35.4365745 L178.700124,35.4365745 C179.696546,35.3855479 180.694045,35.5133252 181.645859,35.8139161 Z M200.968379,35.1724353 C201.394639,35.1724642 201.811336,35.2993932 202.165866,35.5371989 C202.573821,35.8522316 202.924901,36.2343866 203.204527,36.6668798 L203.338318,36.8872435 L202.603971,37.5371097 C202.375971,37.1456393 202.082362,36.796705 201.736106,36.5057092 C201.507152,36.3416802 201.232875,36.2537199 200.951689,36.2541481 C200.611995,36.244035 200.285202,36.3852078 200.058789,36.6398751 C199.823869,36.8979617 199.698165,37.237809 199.708305,37.5874219 C199.707897,37.8142103 199.750374,38.0390115 199.833478,38.2498662 C199.943877,38.5068233 200.096177,38.7434662 200.2841,38.9500446 C200.400928,39.0842105 200.788964,39.4322034 201.448208,39.9982159 C201.718076,40.2291624 201.976083,40.4736357 202.221253,40.7306812 L202.462108,40.9918822 L201.001758,40.9918822 C200.893275,40.8870651 200.784792,40.7906334 200.663791,40.6816236 C200.140051,40.2615006 199.668018,39.7801383 199.257683,39.2477252 C198.943046,38.7720038 198.776047,38.2131253 198.777853,37.6419269 C198.76909,37.2056978 198.866487,36.7739191 199.061578,36.3841213 C199.237281,36.0187463 199.512075,35.7106446 199.85434,35.4952721 C200.186704,35.2814479 200.573744,35.1692877 200.968379,35.1724353 Z M189.473336,35.4365745 L189.473336,40.9876896 L188.572092,40.9876896 L188.572092,35.4365745 L189.473336,35.4365745 Z M194.551183,35.4365745 L194.551183,40.9834969 L193.649938,40.9834969 L193.649938,35.4365745 L194.551183,35.4365745 Z M211.816694,35.4365745 L211.816694,36.4595897 L209.805584,36.4595897 L209.805584,40.9709188 L208.883477,40.9709188 L208.883477,36.4595897 L206.868193,36.4595897 L206.868193,35.4365745 L211.816694,35.4365745 Z M219.368791,35.5749331 C219.900999,35.7106657 220.366359,36.0353182 220.678934,36.4889384 C221.022525,36.9990343 221.197693,37.6048291 221.179625,38.2205174 C221.192134,38.7448772 221.073035,39.2639596 220.833314,39.729884 C220.612783,40.1533933 220.265416,40.4965804 219.840276,40.7109723 C219.656978,40.8006255 219.465012,40.870666 219.267551,40.92006 L219.068376,40.9625335 L215.534329,40.9625335 L215.534329,35.4323818 L217.332646,35.4323818 C218.014503,35.4051635 218.697278,35.4529648 219.368791,35.5749331 Z M226.249127,35.4365745 L226.249127,40.9625335 L225.347882,40.9625335 L225.347882,35.4365745 L226.249127,35.4365745 Z M241.620356,35.1724353 C242.045419,35.1717761 242.460976,35.2988006 242.813671,35.5371989 C243.223778,35.8509501 243.576366,36.2331054 243.856396,36.6664092 L243.990296,36.8872435 L243.255948,37.5371097 C243.028032,37.1443537 242.732809,36.7951801 242.38391,36.5057092 C242.156498,36.3417501 241.883559,36.2537508 241.603666,36.2541481 C241.263973,36.244035 240.937179,36.3852078 240.710766,36.6398751 C240.475847,36.8979617 240.350142,37.237809 240.360282,37.5874219 C240.359874,37.8142103 240.402352,38.0390115 240.485455,38.2498662 C240.594099,38.5067891 240.745026,38.743492 240.931905,38.9500446 C241.052905,39.0842105 241.440941,39.4322034 242.100185,39.9982159 C242.332224,40.1984435 242.55574,40.4083314 242.770155,40.6273126 L243.084878,40.9625335 L241.616183,40.9625335 C241.520218,40.8661017 241.424252,40.7780553 241.315769,40.6816236 C240.792166,40.2599645 240.31892,39.7787934 239.905487,39.2477252 C239.595029,38.7702713 239.429741,38.2122644 239.429831,37.6419269 C239.421067,37.2056978 239.518464,36.7739191 239.713556,36.3841213 C239.887907,36.0178389 240.163008,35.7093948 240.506317,35.4952721 C240.838681,35.2814479 241.225722,35.1692877 241.620356,35.1724353 Z M235.866576,35.4365745 L235.866576,36.4595897 L231.594009,36.4595897 L231.594009,39.9269402 L235.829024,39.9269402 L235.829024,40.9457627 L230.692764,40.9457627 L230.692764,35.4365745 L235.866576,35.4365745 Z M218.254574,36.4495401 L218.029441,36.455397 L216.435573,36.455397 L216.435573,40.03595 L217.99189,40.03595 C218.447268,40.060124 218.902817,39.9916738 219.331239,39.8347012 C219.619112,39.7027338 219.855346,39.4786226 220.003,39.197413 C220.169954,38.8995339 220.254925,38.5623409 220.249174,38.2205174 C220.252962,37.8842432 220.168022,37.5529631 220.003,37.2603925 C219.859643,36.9899129 219.632659,36.7735993 219.356274,36.6440678 C219.072751,36.54316 218.777724,36.481011 218.479097,36.4587445 L218.254574,36.4495401 Z M86.3058531,0.125780553 C89.7397623,0.125780553 92.6187384,1.12363961 93.8162256,1.3500446 C94.1541924,3.88661909 94.4087105,5.74397859 94.6507114,8.14638715 L93.4240173,8.51115076 C92.2807717,3.70633363 89.7397623,1.75673506 85.1626075,1.75673506 C78.0903401,1.75673506 74.3142917,8.14638715 74.3142917,15.0349688 C74.3142917,23.5125781 78.9748951,29.3110616 85.4129533,29.3110616 C89.7355899,29.3110616 92.0220811,26.8206066 94.1375026,22.3302409 L95.3725417,22.7830508 C94.7800567,24.8793934 93.70357,28.2335415 92.9567052,29.7638715 C91.7717353,30.0363961 88.2126532,30.9420161 85.1626075,30.9420161 C74.6188791,30.9420161 70,23.1478145 70,15.9405888 C70,6.38126673 76.8594735,0.125780553 86.3058531,0.125780553 Z M152.693373,0.129973238 L152.693373,20.1039251 C153.674837,19.9183948 154.560614,19.3932491 155.196831,18.6197145 C156.21728,17.4444469 157.152894,16.1974446 157.996531,14.8882248 C158.831017,13.5759144 158.705844,13.2363069 156.811561,13.0224799 L156.811561,11.9198037 L164.826797,11.5382694 L164.826797,12.6199822 C162.102201,13.0895629 161.27606,13.5549509 159.740606,15.1355932 C158.75174,16.1963426 158.042428,17.0432649 156.348421,19.1647636 C157.099459,20.4225691 161.117508,25.4537913 162.46103,26.9254237 C163.837932,28.5354148 164.901901,29.1727029 166.403976,29.2565566 L166.403976,30.3592328 L161.013197,30.409545 C159.19819,28.2461195 156.715595,24.8542373 154.550104,22.0241748 C153.995171,21.3449599 153.640515,21.0892061 153.327583,21.0892061 C153.110569,21.0943086 152.896043,21.1368549 152.693373,21.2149866 L152.693373,25.9149866 C152.693373,28.7157003 153.010478,28.9672614 155.534798,29.2230152 L155.534798,30.3256913 L146.743489,30.3256913 L146.743489,29.2230152 C149.384637,28.9672614 149.622465,28.6276539 149.622465,25.9149866 L149.622465,5.91168599 C149.622465,3.11516503 149.426361,2.85941124 147.01887,2.6455843 L147.01887,1.61837645 C148.95776,1.32690565 150.860076,0.827934696 152.693373,0.129973238 Z M197.476055,11.9323818 C197.937176,13.367757 198.248993,14.8472952 198.406507,16.3472792 L197.342538,16.6491525 C196.508052,14.1335415 195.056047,12.5277431 192.978177,12.5277431 C191.309205,12.5277431 190.224374,13.7352364 190.224374,15.3997324 C190.224374,17.2319358 191.91838,18.187868 193.783456,18.9802855 C197.000398,20.2674398 199.161717,21.7684211 199.161717,24.6404103 C199.161717,28.4138269 195.56091,30.3843889 192.172898,30.3843889 C190.015752,30.3843889 188.067228,29.5919715 187.345397,28.9672614 C187.049155,28.3844781 186.623567,25.5544157 186.623567,24.0576271 L187.766813,23.8479929 C188.488643,26.5983943 190.395443,29.0091882 192.936452,29.0091882 C193.726138,29.0330046 194.491741,28.7343412 195.058578,28.181342 C195.625415,27.6283429 195.94513,26.8681851 195.944774,26.0743087 C195.944774,24.2421053 194.693045,23.2442462 192.606831,22.3008921 C190.065821,21.1772525 187.312018,19.7601249 187.312018,16.5988403 C187.312018,13.6639607 189.853027,11.1860839 193.750076,11.1860839 C195.03125,11.1601925 196.302677,11.4148541 197.476055,11.9323818 Z M140.772743,10.5236396 C142.508474,10.5236396 143.906238,11.0812667 144.582171,11.6850134 C145.013107,11.970831 145.26945,12.4575607 145.262277,12.9763604 C145.262277,13.8777877 144.327653,14.8253345 143.860341,14.8253345 C143.609995,14.8253345 143.397201,14.6953613 143.059234,14.3515611 C141.910267,13.2375215 140.374955,12.6165055 138.778322,12.6199822 C135.982795,12.6199822 133.571131,14.9888492 133.571131,19.5043711 C133.571131,25.4873327 137.551628,27.4704728 139.967464,27.4704728 C141.786644,27.4704728 143.142683,26.9547725 145.091207,25.1016057 L145.808865,25.9862623 C143.947962,28.5018733 141.152434,30.3760036 138.653149,30.3760036 C133.316612,30.3760036 130.141394,25.9862623 130.141394,21.382694 C130.141394,18.0704728 131.580882,15.1859054 134.418134,12.9973238 C136.621176,11.2699376 139.162186,10.5236396 140.726847,10.5236396 L140.772743,10.5236396 Z M210.802794,11.1776985 C212.05236,11.1521346 213.274468,11.5477054 214.274255,12.3013381 C215.755468,13.5591436 216.181055,15.2110616 216.181055,17.4164139 L216.181055,25.1309545 C216.181055,27.0008921 216.94461,27.6465656 217.66644,27.6465656 C218.204174,27.6214274 218.727365,27.462988 219.189377,27.1853702 L219.60662,28.267083 L216.03502,30.3718109 C215.295303,30.3255567 214.592684,30.0301467 214.040599,29.5332739 C213.544383,29.0255946 213.194048,28.3925087 213.026699,27.7010705 C211.332693,28.8247101 209.30072,30.3676182 208.019784,30.3676182 C206.674258,30.3754277 205.381113,29.8440787 204.426539,28.8911659 C203.471965,27.9382531 202.93468,26.6423569 202.933593,25.2902765 C202.933593,23.2526316 204.035114,21.9612846 206.367502,21.1730598 C208.908511,20.3345227 212.000281,19.2192685 212.930733,18.4687779 L212.930733,17.7644068 C212.930733,14.7289028 211.491245,13.0644068 209.329927,13.0644068 C208.6116,13.0498305 207.921664,13.3460801 207.435644,13.8777877 C206.926607,14.4605709 206.542744,15.3745763 206.183915,16.6239964 C206.062182,17.2008929 205.543562,17.6050406 204.957221,17.5799286 C204.193666,17.5799286 203.138042,16.7875112 203.138042,15.7896521 C203.138042,15.2068689 203.642906,14.7079393 204.448185,14.1125781 C205.59143,13.274041 208.386958,11.6975914 210.802794,11.1776985 Z M227.659408,11.7059768 L227.659408,12.7876896 C225.118399,13.1650312 224.905605,13.4123996 225.49809,15.3284567 C226.516162,18.493934 227.584304,21.7851918 228.631584,24.9967886 L228.715032,24.9967886 C230.283866,20.996967 231.852699,16.7455843 233.630154,11.9114184 L234.731675,11.9114184 C236.300509,16.2466548 238.036239,20.6615522 239.817866,25.1603033 L239.897143,25.1603033 C240.831767,22.288314 242.016737,18.6197145 242.817843,15.5171276 C243.368604,13.3495094 243.072361,13.1440678 240.360282,12.7667261 L240.360282,11.7059768 L247.987483,11.7059768 L248,12.7876896 C245.880406,13.0811775 245.496543,13.580107 244.662057,15.8693131 C243.389466,19.2234612 241.482666,24.7452275 239.580038,30.3718109 L238.349171,30.3718109 C236.64682,25.8688671 234.923607,21.7851918 233.171187,17.4122212 C231.564802,21.6049063 229.833243,25.7430865 228.130892,30.3718109 L226.945923,30.3718109 C225.381262,25.4118644 223.812428,20.4938448 222.034973,15.4961641 C221.271419,13.3285459 220.933452,13.0392507 218.897307,12.7876896 L218.897307,11.7059768 L227.659408,11.7059768 Z M175.650079,11.1776985 C176.898922,11.1525401 178.120473,11.5464553 179.12154,12.2971454 C180.606924,13.5549509 181.02834,15.2068689 181.02834,17.4122212 L181.02834,25.1141838 C181.02834,26.9841213 181.791894,27.6297948 182.509552,27.6297948 C183.048036,27.6047376 183.572273,27.4478546 184.036661,27.1727921 L184.453904,28.2503122 L180.85727,30.3508475 C180.118859,30.3043139 179.41765,30.0088786 178.867021,29.5123104 C178.37011,29.0068108 178.019599,28.3748573 177.853121,27.6842997 C176.154942,28.8037467 174.122969,30.3424621 172.846206,30.3424621 C171.504672,30.3491485 170.215561,29.8194702 169.263037,28.8701861 C168.310512,27.9209019 167.772775,26.6299471 167.76836,25.2818912 C167.76836,23.2442462 168.874054,21.9570919 171.202269,21.1646744 C173.743278,20.3261374 176.835048,19.2150758 177.7655,18.4645852 L177.7655,17.7602141 C177.7655,14.7247101 176.326012,13.0644068 174.164694,13.0644068 C173.446513,13.0429807 172.753174,13.3295899 172.257894,13.8526316 C171.75303,14.4354148 171.369166,15.3494202 171.031199,16.5946476 C170.909466,17.1715441 170.390846,17.5756918 169.804505,17.5505798 C169.040951,17.5505798 167.981154,16.762355 167.981154,15.764496 C167.981154,15.1817128 168.49019,14.6827832 169.295469,14.0874219 C170.438715,13.2488849 173.234242,11.676628 175.650079,11.1776985 Z M126.190103,11.0938448 L126.190103,25.7682426 C126.190103,28.6611954 126.486346,28.9169492 129.198425,29.1727029 L129.198425,30.2795718 L119.88139,30.3047279 L119.88139,29.1978591 C122.479209,28.9486631 122.827065,28.6994671 122.843196,26.0107765 L122.843815,17.0264942 C122.843815,14.3851026 122.718642,14.1712756 120.173461,13.7897413 L120.173461,12.7709188 C122.237969,12.4530272 124.257639,11.8900659 126.190103,11.0938448 Z M102.937156,1.20792265e-13 L102.937156,14.2970562 C104.464265,12.7667261 106.692342,11.1902765 108.995523,11.1902765 C112.42526,11.1902765 114.836924,13.3578947 114.836924,18.4687779 L114.836924,25.9191793 C114.836924,28.7282783 115.17489,28.9840321 117.632451,29.1978591 L117.632451,30.3047279 L108.69928,30.3047279 L108.69928,29.1978591 C111.090421,28.9490175 111.474991,28.700176 111.494032,26.1380907 L111.494808,18.8545049 C111.494808,15.3661909 110.180493,13.6178412 107.343241,13.6178412 C105.632927,13.6748356 104.028887,14.4654858 102.937156,15.7896521 L102.937156,25.9191793 C102.937156,28.6444246 103.14995,28.9421053 105.690959,29.1978591 L105.690959,30.3047279 L96.6701671,30.3047279 L96.7118914,29.1978591 C99.1860321,28.9896591 99.5715542,28.74171 99.5901314,26.1356913 L99.5908675,5.61819804 C99.5908675,2.93487957 99.507419,2.76717217 96.7118914,2.51141838 L96.7118914,1.48840321 C98.818674,1.13721604 100.898735,0.639892752 102.937156,1.20792265e-13 Z M212.939078,19.8900981 C212.05035,20.3512935 210.018377,21.223372 209.12965,21.6384478 C207.460678,22.3847458 206.542744,23.1771632 206.542744,24.7158787 C206.518064,25.5377606 206.822622,26.3352212 207.388149,26.9295034 C207.953676,27.5237855 208.732869,27.865181 209.551065,27.8771632 C210.816592,27.7785341 212.011219,27.2507605 212.939078,26.3803747 L212.939078,19.8900981 Z M177.7655,19.8691347 C176.876773,20.3261374 174.8448,21.1982159 173.956072,21.6174844 C172.287101,22.3637823 171.369166,23.1520071 171.369166,24.6907226 C171.34448,25.5122092 171.649165,26.3092397 172.214812,26.9028598 C172.780459,27.4964798 173.559669,27.8369459 174.377488,27.8478145 C175.64326,27.7501701 176.838197,27.2222594 177.7655,26.3510259 L177.7655,19.8691347 Z M124.283303,3.10677113 C124.860588,3.10513758 125.413465,3.34063725 125.813713,3.75866353 C126.213962,4.17668981 126.426811,4.74092538 126.402897,5.3205174 C126.398322,6.51806605 125.433342,7.48773111 124.241579,7.49232828 C123.078813,7.43773409 122.155521,6.48983039 122.126157,5.3205174 C122.118365,4.73900921 122.341659,4.1783844 122.746568,3.76285307 C123.151476,3.34732174 123.704569,3.1111919 124.283303,3.10677113 Z" id="cni" fill="#003367" fill-rule="nonzero"></path>
        <path d="M52.0932854,0.0106461252 C52.8888997,1.32366823 55.530339,6.72480241 56.3365614,12.8108373 C57.0400442,18.3655267 56.4543062,24.0082344 54.6251068,29.2981365 C52.3903147,35.4941814 48.3379861,40.9911307 44.6109753,44.1672247 C40.8839646,47.3433187 26.2800229,53.5571071 12.8217657,47.3433187 C4.64590779,43.5686959 0.837247567,35.8948082 0.0386303976,33.5219515 L0.005,33.417 L0.0128412355,33.4305886 C0.0419600155,33.4898907 0.116059405,33.635401 0.243569318,33.8519283 L0.336581107,34.0066342 C1.3308243,35.6280873 4.70090754,40.1564462 12.8217657,43.311986 C19.310442,45.5157339 25.4738004,44.7776026 30.5940202,42.9109819 C36.2835461,40.8420849 39.5190441,37.8824621 42.3302145,34.4544098 C44.0976154,32.2997515 45.5185814,29.8810984 46.5416659,27.2860189 C47.7886524,24.0810561 48.4371276,20.6731082 48.4546762,17.232528 C48.4565882,11.1375118 46.4307212,5.22158437 42.7066157,0.41950347 L42.3832554,0.0106461252 L52.0932854,0.0106461252 Z M60.1166132,1.0658141e-13 C60.3577663,0.0757614508 60.5874012,0.184422089 60.7990734,0.322932464 C61.6132889,0.874580955 62.1336631,1.76760287 62.2134987,2.75024901 C62.5317444,4.94689951 61.0465978,6.37348028 60.4136425,6.98385813 L60.2969524,7.09386809 C60.0140673,7.37066734 57.5494312,9.87960418 57.9772948,12.5730739 C58.0957086,13.6979005 58.7126417,14.7093785 59.6569249,15.3268716 C60.7659632,16.0310928 62.172413,16.060966 63.3101475,15.4044664 C64.447882,14.7479669 65.1297352,13.5130938 65.0812461,12.1969108 L65.0635658,12.1969108 C65.0413738,11.4688463 64.794236,10.765705 64.3563531,10.1847931 C63.7546974,9.44071515 62.8346041,9.03046902 61.8811088,9.08114479 C61.1318862,9.11918956 60.4289939,9.45655758 59.9292018,10.0180038 C59.3435826,10.6710085 59.0756384,11.550462 59.1972367,12.4204794 C59.3081294,13.4719589 60.0700963,14.3377551 61.0961027,14.5780941 C62.2671482,14.8097963 63.4207866,14.1062084 63.7552224,12.9563344 C63.9241176,12.2929669 63.8155352,11.5891444 63.454657,11.0080934 C63.2240711,10.6458395 62.8714217,10.3788324 62.4610232,10.2557673 C62.072346,10.1413754 61.6547717,10.1807423 61.2941223,10.3657772 C61.0054564,10.5128879 60.7667315,10.742587 60.608126,11.025837 C60.3531469,11.4856047 60.3282655,12.0388945 60.5409408,12.5198432 C60.6508444,12.7798197 60.8355203,13.0009878 61.0713503,13.155062 C61.3722942,13.3625445 61.7691434,13.3639009 62.0714886,13.1584804 C62.3738338,12.95306 62.5199804,12.5827795 62.4398068,12.2253004 C62.3791308,11.9677065 62.2119301,11.7482775 61.9801186,11.62202 C61.858838,11.5618222 61.7118388,11.6089046 61.6477286,11.7284813 C61.5880695,11.8491597 61.6351296,11.9955675 61.7538105,12.0585111 C61.8542291,12.1160824 61.9288794,12.2100465 61.9624382,12.3211156 C61.9951816,12.4499131 61.9622015,12.5866242 61.8743827,12.686129 C61.7865639,12.7856338 61.65532,12.835 61.5239664,12.8179347 C61.4612536,12.8113649 61.4014319,12.7880858 61.3506993,12.7505093 C61.1961147,12.6484118 61.0735126,12.5044544 60.9970929,12.3353104 C60.8402459,11.9941553 60.856028,11.5981905 61.0395257,11.2706979 C61.150519,11.0701947 61.3194105,10.9081224 61.5239664,10.8058171 C61.7693901,10.6745323 62.0563711,10.6452218 62.3231167,10.7241968 C62.6155399,10.8172652 62.8659373,11.0107607 63.0303294,11.2706979 C63.3183239,11.7354793 63.406352,12.2975452 63.2743177,12.8285809 C63.001699,13.7274147 62.0965199,14.2743025 61.1774322,14.0954698 C60.8804029,14.0386904 59.8938412,13.7405989 59.6710692,12.3424078 C59.5628762,11.6134895 59.7875693,10.8744342 60.2828081,10.3302901 C60.702381,9.87508997 61.2849185,9.60575598 61.9023252,9.58151267 C62.6979734,9.53640431 63.4665972,9.87850269 63.9673862,10.5006281 C64.7250791,11.5128726 64.7813544,12.8894889 64.1088287,13.9606188 C63.2083441,15.3851913 61.3278109,15.8077592 59.9079854,14.9045753 C59.0837271,14.3665254 58.5487312,13.4808214 58.4546634,12.498551 C58.2990766,11.51201 58.5607453,10.4261053 59.2325973,9.26922633 C59.6269748,8.60476953 60.1020894,7.99206403 60.6470227,7.44519022 L60.7601767,7.33872897 C61.446173,6.6751205 63.0586179,5.12433493 62.7050115,2.68282355 C62.6775469,2.47706579 62.6373944,2.2732153 62.5847854,2.0724457 C62.3781963,1.23474097 61.8787842,0.499314641 61.1774322,1.0658141e-13 L62.6448985,9.59232693e-14 C62.6448985,9.59232693e-14 67.6378199,11.476523 65.4419246,24.6209389 C63.0706167,38.7865056 55.4727258,46.782332 54.9632028,47.3052813 L54.9362803,47.3326726 L53.6550507,47.332 L53.7958813,47.1832374 C54.1821927,46.7445817 54.4522411,46.2137945 54.5791379,45.6399387 L54.5791379,45.6292926 C54.7588638,44.6897354 54.4832605,43.7203575 53.8365646,43.0174432 C53.3264731,42.4719788 52.6224754,42.1506037 51.8775855,42.1231687 C50.9995396,42.0924443 50.1533719,42.4552698 49.5685362,43.1132583 C48.8317666,43.8679814 48.6567696,45.0102436 49.1336004,45.952225 C49.4342186,46.5028975 49.9446364,46.9075695 50.5480257,47.0736169 C51.0517601,47.2108066 51.5871178,47.1707304 52.0649969,46.9600582 C52.6790086,46.6622253 53.1461179,46.126843 53.3591961,45.4766981 C53.4866439,45.0671639 53.4640703,44.6254034 53.2955469,44.2311015 C53.1344635,43.8587372 52.8369727,43.5627234 52.4645721,43.4042524 C52.1689645,43.2743557 51.8414291,43.2360478 51.5239792,43.2942425 C51.0074832,43.3923947 50.5672464,43.7290126 50.3358619,44.2027118 C50.215162,44.4491102 50.1649731,44.7242932 50.1908833,44.9976225 C50.2037547,45.138901 50.249803,45.2751075 50.3252537,45.3950778 C50.4818044,45.6390491 50.7465783,45.7916211 51.0354495,45.8043177 C51.3243207,45.8170142 51.6013717,45.6882565 51.7785758,45.4589546 C51.9390492,45.2464913 51.9996912,44.9745687 51.9447707,44.7137258 C51.915477,44.5814327 51.7848672,44.4980202 51.6530455,44.5274186 C51.5212238,44.5568171 51.4381085,44.687894 51.4674022,44.8201871 C51.488732,44.9347803 51.4646244,45.0532026 51.400217,45.1502169 C51.3258498,45.2601849 51.2020239,45.3260317 51.0695951,45.3260317 C50.9371662,45.3260317 50.8133403,45.2601849 50.7389731,45.1502169 C50.7034544,45.0975463 50.6826927,45.036264 50.6788601,44.9727815 C50.6616506,44.7887782 50.6946541,44.6035433 50.7743338,44.4369266 C50.9373622,44.1038411 51.2460264,43.8662647 51.6088447,43.7946103 C51.832899,43.7527492 52.0642964,43.7786892 52.2736246,43.8691332 C52.529525,43.9779215 52.7352789,44.1793441 52.850003,44.4333778 C52.9711797,44.7213814 52.987454,45.0430059 52.8959718,45.3418472 C52.7279106,45.8567346 52.3610489,46.2824353 51.8775855,46.5235671 C51.0147819,46.8900339 50.0155065,46.5440128 49.561464,45.721559 C49.4164854,45.4554059 49.0133742,44.5008033 49.9362868,43.4361908 C50.4241198,42.8852585 51.1332789,42.5841568 51.8669774,42.6164391 C52.4839568,42.6393706 53.0665582,42.9074575 53.4864944,43.3616679 C54.0312789,43.9451225 54.262908,44.7560818 54.1088415,45.5405749 C53.9669279,46.1526375 53.6395724,46.7055533 53.1717847,47.1232988 C53.093517,47.1994423 53.0096702,47.2695763 52.9209534,47.3331126 L49.3920507,47.332 L49.2374583,47.2239407 C49.0771252,47.1020817 48.9307583,46.9624139 48.8012104,46.8074638 C48.4234735,46.3670742 48.1782106,45.8280276 48.0939977,45.2531295 C47.978266,44.2724022 48.3125758,43.2919957 49.002766,42.5880495 C49.6569378,41.8357233 50.6541076,41.3424528 51.9695232,41.1153355 C52.7264776,40.988405 53.4964432,40.9585933 54.2608922,41.0266178 L54.416479,41.0266178 C55.364144,41.133079 57.5989361,41.3814886 59.2255252,39.539709 C59.362528,39.3858828 59.4911907,39.2247755 59.6109561,39.0570846 C60.1524181,38.3330762 60.4023818,37.4310025 60.3110967,36.5304042 L60.3110967,36.5197581 C60.2287337,35.8519067 59.9603234,35.2209164 59.5366988,34.6992707 C58.688982,33.6566747 57.3265935,33.1849602 56.0186251,33.48117 C54.7106567,33.7773799 53.6821513,34.7905496 53.3627322,36.0974618 C53.1671305,37.0348238 53.4299831,38.0095375 54.0699448,38.7199573 C54.5732281,39.2776974 55.2765549,39.6121108 56.0253879,39.6497189 C56.9029494,39.6913004 57.7537441,39.3404085 58.3485815,38.6915677 C59.0924369,37.9428697 59.2825692,36.8036919 58.822414,35.8526009 C58.5246039,35.2951794 58.0142128,34.8828453 57.4079886,34.7099168 C56.9050988,34.5668739 56.3685921,34.600682 55.8874814,34.805732 C55.269478,35.0937513 54.7946707,35.6214935 54.5720658,36.2677998 C54.4358995,36.6759928 54.4522371,37.1199441 54.6180346,37.5169452 C54.7743487,37.8913641 55.068043,38.1911904 55.4384013,38.3544404 C55.7331625,38.48716 56.0608531,38.5279587 56.3789942,38.4715477 C56.8972079,38.3813336 57.342733,38.0512551 57.5812557,37.5808219 C57.7056056,37.3354718 57.759477,37.0602366 57.7368425,36.7859112 C57.7097297,36.4596809 57.507838,36.1741179 57.2099691,36.0406825 C56.8377906,35.8702083 56.3976056,35.9806481 56.1491501,36.3068356 C55.9837748,36.5156332 55.919035,36.7872135 55.9723469,37.0485157 C55.990665,37.1340943 56.0530845,37.2033647 56.1360927,37.2302334 C56.2191009,37.2571021 56.3100868,37.2374871 56.374777,37.1787771 C56.4394671,37.1200672 56.4680335,37.0311818 56.4497155,36.9456031 C56.4306258,36.8312076 56.457313,36.7138743 56.5239728,36.619122 C56.6347542,36.4615703 56.8435682,36.4088032 57.0154856,36.4949172 C57.0852882,36.5286726 57.1441364,36.5815793 57.1852166,36.6475116 C57.2171125,36.7016429 57.23645,36.7622887 57.2417937,36.824947 C57.2571137,37.0088691 57.2203405,37.1933925 57.1357118,37.3572533 C56.9704386,37.6894703 56.6583733,37.9236983 56.2941287,37.9889234 C56.0702304,38.029412 55.8393387,37.9996728 55.6328848,37.9037544 C55.3775691,37.7929735 55.1739647,37.5886411 55.0635786,37.3324123 C54.9449809,37.0433432 54.9324504,36.7214158 55.028218,36.423943 C55.2083053,35.9049803 55.5913758,35.4820959 56.089037,35.2528692 C56.9550101,34.896056 57.9495604,35.2548225 58.3910142,36.083267 C58.5359928,36.3494201 58.9249598,37.3075714 57.987903,38.3650865 C57.4911808,38.9067967 56.7790348,39.1970999 56.0466042,39.1564485 C55.4290794,39.1257369 54.8490301,38.8499942 54.4341593,38.3899274 C53.9016312,37.7972361 53.6823211,36.9853908 53.8436368,36.2039231 C54.1967904,34.7733908 55.5161345,33.7989417 56.982107,33.8858929 C58.4480795,33.9728442 59.6438656,35.0964732 59.826656,36.5587939 C59.9219708,37.47033 59.6292751,38.3763743 59.0269787,39.0567704 L58.8825271,39.2096791 C57.4079886,40.8598285 55.3464637,40.6291624 54.4907364,40.536896 L54.3316135,40.536896 C53.9391105,40.4978602 50.4419438,40.2104149 48.6562318,42.265117 C47.8751856,43.0734166 47.4985194,44.1918141 47.6307734,45.3099088 C47.7203326,45.9754281 47.996222,46.6017833 48.4263877,47.1162014 C48.4888068,47.1917071 48.5549402,47.2640383 48.6245409,47.3329253 L42.1180507,47.3326726 C43.2237148,46.5400816 44.2860703,45.6883426 45.3005077,44.7811513 C46.8333094,43.3982938 48.2523458,41.8934833 49.5437837,40.281389 C50.7881107,38.6835139 51.9222879,37.0022488 52.9384045,35.2493205 C54.5181356,32.3065423 55.7216473,29.1755221 56.5204367,25.9304123 C57.1947179,22.9971282 57.5222936,19.994333 57.4963902,16.9841184 C57.4287148,12.6483474 56.6127752,8.35714987 55.084795,4.30103458 C54.5345024,2.81781142 53.8700756,1.37979548 53.0975274,9.59232693e-14 L60.1166132,1.0658141e-13 Z M40.9582219,0.159691878 C41.0620049,0.160621479 41.1611138,0.203137565 41.2334995,0.277781545 C41.3058852,0.352425524 41.345544,0.453006172 41.3436528,0.557147218 C41.3430442,0.590661507 41.3382436,0.623114546 41.3297614,0.654011017 L41.4320544,0.777167139 C45.2526457,5.44043734 47.3334251,11.2947329 47.3161716,17.3318918 C47.3161716,31.8390117 35.5268286,43.677503 21.3825751,43.592334 C19.2609371,43.5781391 18.1293968,43.5320059 15.0176611,42.8471052 C14.8922838,42.8173646 14.0644484,42.5752481 13.4919662,42.4069397 C13.4281106,42.455787 13.3478688,42.4828391 13.261492,42.481528 C13.0471666,42.4782749 12.8758581,42.301622 12.8784355,42.0865211 C12.8810128,41.8714203 13.0565044,41.6989525 13.2708458,41.7008724 C13.4358169,41.7053086 13.5749936,41.8105276 13.6304884,41.9568359 C16.1133114,42.5863283 18.6648171,42.906092 21.2269883,42.9109819 C35.6505908,42.9109819 46.7609019,30.983773 46.7609019,16.9308878 C46.7585068,11.1783839 44.7721113,5.60956307 41.1478784,1.1662769 L40.951,0.931 L40.9591426,0.940369937 L40.9488681,0.940347538 L40.9488681,0.940347538 C40.7345427,0.937094363 40.5632342,0.76044149 40.5658116,0.545340619 C40.5683889,0.330239748 40.7438805,0.157771989 40.9582219,0.159691878 Z M11.1945723,1.23509778 C11.0659669,0.204166574 13.7475295,1.88746442 14.2148544,2.12424116 C15.3861522,2.71768115 16.5631383,3.29956409 17.7382166,3.88533504 C20.1626038,5.09386664 22.5835992,6.31416929 24.9311059,7.67048125 C25.7876386,8.16540099 25.6335595,7.88107628 26.483026,7.61305272 C26.9909464,7.45282357 27.4551269,7.68210963 27.9598675,7.6470818 C28.8347017,7.58633597 29.4460364,6.88417416 30.2361819,6.53817621 C31.9256815,5.79859668 34.1733777,5.39830916 35.8147563,6.43986999 C36.8285832,7.0830338 36.4741766,7.62111412 36.8878335,8.59187021 C37.276264,9.50348563 38.3114663,9.96772927 38.6506452,10.8283724 C38.8439065,11.3185837 38.6283159,11.8481389 38.8674724,12.3376369 C39.0708737,12.7539045 39.537492,12.9880417 39.7918762,13.3628252 C39.9627023,13.6144763 40.2052505,13.9084319 40.1451876,14.2433008 C40.0558705,14.7410028 39.5766389,14.6592117 39.3851795,15.0326042 C39.1589542,15.4738051 39.4078974,16.0261533 39.3777246,16.5549951 C39.350661,17.029476 39.2077465,17.4901883 39.1932608,17.9668808 C39.1606148,19.0364068 39.4240084,19.5609326 38.4124427,20.1987816 C38.069024,20.4153335 37.5059164,20.5218438 37.2381771,20.830959 C37.0941673,20.9972521 36.7339664,22.1240283 36.93281,22.2778012 C37.1997368,22.4841872 37.3129731,21.9674018 37.5178937,22.0803683 C37.8369691,22.2562209 38.0157447,22.6399219 38.337258,22.8976726 C38.3934345,22.7067316 38.6538603,22.1344439 38.9181372,22.1065857 C39.1637946,22.294031 38.9377813,22.6771613 38.9833585,22.9173267 C39.356314,22.84349 39.7435432,22.4742353 40.0933215,22.59669 C40.1056167,22.9686556 39.6498804,23.2807315 39.8272427,23.654231 C40.0132258,23.6589037 40.2561273,23.267391 40.4482934,23.4506272 C40.2480012,24.2971451 40.4741558,24.9115946 40.3327252,25.7586119 C40.1523112,26.5888354 39.8148362,27.3760878 39.3388251,28.0771548 C38.0431263,30.1720832 36.1793382,31.9270775 34.243192,33.4098036 C32.1183422,35.0373494 29.6673859,36.5424048 27.0458157,37.1739759 C24.9062681,37.6894415 22.3281551,38.1028555 20.1404865,37.6941142 L20.1404865,37.6941142 L20.1404865,37.7048152 C19.3667346,37.6948633 19.0097488,37.8570186 18.7931336,38.7289335 C17.808488,38.5606459 16.808208,38.504792 15.8111858,38.5624264 C15.9869566,38.1419664 16.1378389,37.7113386 16.2630357,37.2728172 C16.2447695,37.2689291 16.2254787,37.2657189 16.2072831,37.2617952 C16.358962,37.0086387 16.4545441,36.7253248 16.4874591,36.4313288 L16.4874591,36.4313288 L16.6055357,36.4499128 C17.7651742,33.745921 17.7265926,30.6713903 18.9563282,27.9925815 C19.4883091,26.8338094 20.1491073,25.889021 21.3707167,25.4740375 C22.0335288,25.2488534 22.5455829,25.1856821 23.0274289,24.6517038 C23.3283643,24.2342085 23.6577411,23.8383847 24.0131676,23.4671067 C25.1293489,22.5140072 26.4154022,21.7796355 27.5212668,20.8058474 C28.0946204,20.3010471 28.380414,20.1457404 28.2724067,19.3944255 C28.1541324,18.852082 27.9496001,18.3326685 27.6667604,17.8563755 C26.6611303,15.9206775 25.3915059,14.3808796 25.8957872,12.0461782 C24.7180945,12.8842423 25.6354674,13.5579038 25.2197966,14.6649189 C24.794657,15.7971883 23.8703592,17.3120886 22.9459553,18.0671845 C22.8723488,17.9725166 22.7967991,17.8794539 22.7193061,17.7879963 C22.6354396,18.7779781 22.2596395,19.7198703 21.6403992,20.4921307 C21.2210836,21.0548698 20.8483427,21.6514879 20.5259492,22.2759463 C19.7652698,23.599977 18.3561935,24.7799727 16.7750545,24.7269316 C16.9575944,24.2657199 17.1774589,23.8256749 17.4209158,23.3991961 L17.664,22.987 L17.5838454,23.0862662 C17.1244481,23.6270066 16.6073304,23.9498278 16.0811147,23.6166239 L15.9682327,23.5350222 C16.2810192,22.640564 16.8779741,22.1588064 17.0968152,21.257678 C17.2806976,20.5646752 17.6027811,19.9168687 18.0433363,19.3539402 C18.2907047,19.0188266 18.5230235,18.6762763 18.7504409,18.3314622 L19.4281367,17.2954018 C19.7697807,16.7791491 20.1232298,16.2694424 20.5227341,15.7837407 C21.2424646,14.9087583 21.9234016,13.6150113 22.8911921,13.0014892 C23.4297446,12.660271 24.1535736,12.9202689 24.5876166,12.6804602 C25.0662828,12.4160036 25.1409728,11.4425723 25.5342084,11.0455307 C24.9263362,11.1608871 25.0799559,10.5838196 24.7513764,10.3392669 C24.3168127,10.1381636 23.8230402,10.1102238 23.3689397,10.2610428 C22.8786849,10.444493 22.5890049,10.9627052 22.1609328,11.2426425 C21.6839895,11.5270792 21.1407231,11.6783979 20.5867894,11.6810968 C19.2059063,11.7381671 17.8230003,11.7214979 16.4438604,11.631159 C15.7226813,11.60965 14.9964145,11.63148 14.2764012,11.5978433 C14.0353016,11.5866786 13.7417352,11.6746763 13.5223995,11.5331738 C13.4246029,11.4700738 13.4296906,11.2195284 13.2630336,11.2032273 C13.0107693,11.6433224 10.5960982,12.0065489 10.5360352,11.6512055 C10.5631695,11.5790334 10.589079,11.5064095 10.6137637,11.4333338 C10.6063089,11.3903515 9.82842324,11.4534159 9.66823187,11.3772607 C9.42328927,11.2270516 9.23722354,10.9960729 9.14147997,10.7233602 C8.79305095,10.0156805 9.0197029,9.1568417 9.67070505,8.71799895 C11.1809344,7.7027625 14.2086715,8.04740499 15.9332549,8.04062771 C17.9576936,8.03270899 20.5689472,7.74699316 22.4629081,8.60963382 C23.1113051,8.90505186 23.8076817,9.50680293 24.6058121,9.27009753 C25.8020184,8.91532479 24.5792431,8.08906742 23.792454,8.08906742 C23.3682684,7.24658026 21.2400974,6.83320188 20.3780177,6.38661484 C19.0384377,5.69269277 17.758744,4.88519777 16.4126277,4.20390284 C15.3149953,3.64837995 14.1824911,3.17593224 13.0926669,2.60250307 C12.6575993,2.3735737 11.2690503,1.83217609 11.1945723,1.23509778 Z M60.4036411,16.8391591 C58.8116214,17.4730058 57.9011112,19.1607538 58.2424996,20.8451131 C58.464355,21.775966 59.1142024,22.5453963 59.992851,22.9175588 C60.6847467,23.2101628 61.4650259,23.2101628 62.1569217,22.9175588 C62.9724191,22.5860368 63.5966913,21.904827 63.8577682,21.0615843 C64.2215948,20.066785 63.9095426,18.9499618 63.0833703,18.2900431 C62.1261889,17.5752549 60.7848306,17.705726 59.9822428,18.5916833 C59.5467308,19.1168938 59.3413932,19.7965473 59.4129366,20.4760475 C59.4629946,20.9033318 59.6636683,21.2985623 59.9787067,21.5903419 C60.27801,21.8611825 60.6683909,22.0082573 61.0713503,22.0019921 C61.3953044,21.9980453 61.7106332,21.8966804 61.9765825,21.710998 C62.4057401,21.408381 62.6677799,20.9205589 62.6837952,20.3944272 C62.693966,20.1187051 62.6265659,19.8456811 62.4893117,19.6066139 C62.3268745,19.3271174 62.0266685,19.157478 61.7043056,19.1630253 C61.2989873,19.1718694 60.9511568,19.4552184 60.8591865,19.8514748 C60.7988269,20.1107537 60.8557802,20.3835486 61.0147733,20.5967035 C61.0536109,20.652366 61.1137503,20.6893285 61.1808062,20.6987499 C61.2478621,20.7081713 61.3158037,20.6892042 61.3683796,20.6463855 C61.4242108,20.6075367 61.4610607,20.546798 61.469819,20.4791857 C61.4785773,20.4115733 61.4584265,20.343398 61.4143484,20.2915146 C61.3499662,20.1957998 61.3246512,20.0789344 61.3436272,19.9650334 C61.3783587,19.7761672 61.544822,19.6407143 61.7361302,19.6456497 C61.814236,19.6420311 61.8913343,19.6644945 61.9553661,19.7095264 C62.007993,19.7435421 62.0516621,19.7898021 62.0826644,19.8443774 C62.1741629,20.005095 62.2194529,20.1881311 62.2134987,20.3731349 C62.195899,20.7424396 62.0075881,21.0823489 61.7043056,21.2922504 C61.5191431,21.4239737 61.298303,21.4957867 61.0713503,21.4980755 C60.7930757,21.506603 60.5221727,21.4075095 60.3146327,21.2212762 C60.0827659,21.0109808 59.9345564,20.7235859 59.8973772,20.4121707 C59.8476216,19.8715643 60.0157295,19.3334845 60.3641376,18.9181645 C60.9986234,18.2278006 62.0501516,18.1297767 62.8004853,18.6910471 C63.0444736,18.8720313 63.8011912,19.5746755 63.39808,20.9302821 C63.180691,21.6314227 62.6616539,22.1978941 61.9836546,22.4739703 C61.4119542,22.7115448 60.7696431,22.7115448 60.1979426,22.4739703 C59.4646601,22.1670438 58.9227541,21.5255193 58.7410845,20.749298 C58.4872451,19.5022851 59.0330668,18.2283929 60.109541,17.5554604 C60.7935231,17.1233394 61.6206448,16.9818899 62.4086304,17.1622836 C63.196616,17.3426773 63.8807921,17.8301086 64.3103843,18.5171604 C64.8194847,19.362393 64.9171075,20.3943637 64.5755891,21.3206401 C63.9426337,23.4498651 61.9942628,24.1063761 61.1632879,24.3902728 L61.0112372,24.4435034 C60.6364145,24.5748057 57.3478756,25.8026588 56.6017662,28.4251543 C56.2357401,29.489039 56.3655703,30.66169 56.9553725,31.6189918 C57.3201148,32.1837331 57.8360636,32.6338817 58.4440552,32.9178191 C59.6608276,33.4869272 61.0937801,33.3154868 62.1431369,32.475256 C63.1924936,31.6350253 63.6772644,30.2709248 63.3945439,28.9539118 C63.1625296,28.0283937 62.5063456,27.2684495 61.6265122,26.9063071 C60.9314547,26.6221012 60.1518131,26.6297721 59.4624414,26.9275993 C58.6542279,27.2722365 58.0410961,27.9604112 57.7898835,28.8048661 C57.4462008,29.8035833 57.7696394,30.9111931 58.5961059,31.5657612 C59.1059802,31.9366508 59.7440377,32.0839288 60.3641376,31.9738627 C60.8780326,31.8825892 61.345677,31.6185204 61.6901614,31.2250852 C62.120507,30.693693 62.3182152,30.0101204 62.2382512,29.3300749 C62.1804688,28.9043516 61.9736545,28.513144 61.6548007,28.2264266 C61.3503278,27.9594977 60.9555108,27.8198016 60.551549,27.8360687 C60.2275734,27.8431902 59.9132909,27.9483256 59.6498528,28.1377089 C59.2250676,28.4433361 58.9662632,28.9300017 58.9497123,29.4542797 C58.9434181,29.7298327 59.014489,30.0016054 59.1548039,30.2385443 C59.2247896,30.3618517 59.324486,30.4655651 59.4447611,30.5401845 C59.5951151,30.6403601 59.7737765,30.6889206 59.9539543,30.6785841 C60.3625826,30.6651413 60.7082287,30.3711733 60.7884652,29.9688424 C60.8429085,29.7080026 60.7823107,29.4362783 60.6222702,29.2236137 C60.5823372,29.1690262 60.5216612,29.133473 60.4546642,29.1254046 C60.3876672,29.1173362 60.3203322,29.1374732 60.2686639,29.1810292 C60.2133626,29.2204372 60.1772171,29.2814513 60.1691362,29.3490336 C60.1610552,29.4166159 60.1817904,29.4844801 60.2262311,29.5359 C60.2932512,29.6304907 60.3199725,29.7479743 60.3004885,29.8623812 C60.2761705,29.9927106 60.1892298,30.1025503 60.0682337,30.1558085 C59.9472377,30.2090667 59.8078314,30.1988571 59.6958216,30.1285343 C59.6411849,30.0943267 59.5961521,30.0466901 59.5649873,29.9901347 C59.4714215,29.8325663 59.4236519,29.6518682 59.4270808,29.4684745 C59.4329018,29.0971428 59.6123241,28.7501582 59.9115215,28.5316155 C60.0958553,28.3969131 60.3165398,28.3214388 60.5444768,28.3151443 C60.8224148,28.3035035 61.0943119,28.3986905 61.3047305,28.5812974 C61.5369636,28.7892838 61.6874611,29.0737344 61.7290581,29.3833055 C61.7959705,29.9267882 61.6388682,30.4741261 61.2941223,30.898604 C61.0257705,31.2021477 60.6632207,31.4059517 60.2651278,31.4770435 C59.7699269,31.5716344 59.2578098,31.455996 58.8507025,31.1576597 C58.6067141,30.9802243 57.8393884,30.2882262 58.2248193,28.9290709 C58.437603,28.220379 58.9571247,27.6455581 59.6392446,27.3640905 C60.2063664,27.1343925 60.8401545,27.1343925 61.4072763,27.3640905 C62.143386,27.6644277 62.6933873,28.2980713 62.8888868,29.0710192 C63.0193727,29.6865751 62.9563638,30.3275969 62.7085476,30.9057014 C62.4716394,31.466139 62.0709287,31.9412872 61.559327,32.2684055 C60.1470848,33.1840768 58.2627364,32.7791842 57.3478756,31.3634848 C56.8254389,30.5258678 56.713417,29.4944567 57.0437741,28.5635539 C57.316051,27.6054026 58.0126555,26.7324204 59.1088351,25.9694481 C59.7419187,25.5324817 60.425932,25.1749508 61.1456076,24.9048355 L61.2905862,24.8551536 C62.1958184,24.546416 64.3103843,23.8260282 65.017597,21.4625884 C65.0763822,21.2641723 65.1247747,21.0628031 65.1625756,20.859308 C65.3456679,19.9698816 65.1851402,19.0438636 64.7134955,18.2687508 C63.8114449,16.8076135 61.9956607,16.2053124 60.4036411,16.8391591 Z M22.9012615,14.8206537 C21.5418607,16.7620589 20.3125138,18.7931738 19.0137766,20.7756707 C18.8615098,21.0080391 18.6461268,21.4325774 18.3853471,21.8896262 L18.36,21.932 L18.4880193,21.7476178 C18.7699766,21.3438035 19.0572167,20.9434214 19.3360076,20.5388709 L19.6114734,20.1326496 C20.7642577,18.4003056 21.825605,16.6022934 22.9012615,14.8206537 Z M58.1823865,0.0390357924 L57.1215675,0.0390357924 C56.7521582,0.299309927 56.4383637,0.631118667 56.198655,1.0149306 C55.4043095,2.252289 55.4535481,3.85332488 56.3224172,5.03916592 C56.914134,5.78953811 57.8271718,6.21143294 58.7799812,6.17475261 C59.5252398,6.1340224 60.2231649,5.79531525 60.7177439,5.23434489 C61.3072942,4.58597024 61.5804894,3.70887939 61.4638533,2.83896672 C61.3778215,1.78038382 60.6252612,0.896396288 59.5968119,0.645864928 C58.4272818,0.40042434 57.2639946,1.08951037 56.9129398,2.23568629 C56.7362687,2.89567215 56.8359017,3.599443 57.1887527,4.1839272 C57.4119788,4.55531301 57.760908,4.83369116 58.1717783,4.96819176 C58.5584649,5.08881589 58.9766727,5.05447652 59.3386792,4.87237663 C59.6334485,4.73287561 59.8797861,4.50790674 60.0458919,4.2265117 C60.3078165,3.76888436 60.340547,3.21441896 60.1342935,2.72895676 C60.0259669,2.47523587 59.8497177,2.25659321 59.6251004,2.09728666 C59.5092688,2.01566372 59.3761025,1.96220672 59.2361334,1.94114349 C58.9500101,1.90195737 58.6627054,2.00435014 58.4652936,2.21586377 C58.2678818,2.4273774 58.1848428,2.72178324 58.2424996,3.00575601 C58.2997175,3.26469014 58.4644012,3.48677523 58.6951157,3.61613386 C58.7526861,3.64727022 58.8203017,3.6539089 58.8827935,3.63456056 C58.9452853,3.61521223 58.9974215,3.57149673 59.0275057,3.51322131 C59.0583867,3.45597734 59.0649135,3.38864063 59.0456044,3.32649698 C59.0262953,3.26435334 58.9827884,3.21267435 58.9249598,3.18319143 C58.8274437,3.12237116 58.7556853,3.0276145 58.7234042,2.9170383 C58.6740469,2.73107056 58.7671085,2.53674997 58.9426401,2.45925492 C59.0129241,2.42522621 59.0920386,2.41406095 59.1689482,2.42731654 C59.231661,2.43388635 59.2914827,2.45716547 59.3422153,2.494742 C59.4986441,2.59783576 59.6215702,2.74464095 59.6958216,2.9170383 C59.8449002,3.26108024 59.8239409,3.65547387 59.6392446,3.98165082 C59.5246736,4.17883665 59.3550202,4.33799286 59.1512679,4.43943421 C58.9022226,4.56438446 58.6148588,4.58852295 58.3485815,4.50685966 C58.0547756,4.41254408 57.8040537,4.2162817 57.6413688,3.95326115 C57.3604038,3.48420513 57.2800737,2.92116334 57.4185968,2.39182946 C57.5416251,2.00431056 57.7906511,1.66942233 58.1258095,1.44077561 C58.5388443,1.15621294 59.0489492,1.05126749 59.5402348,1.14978152 C59.8337281,1.21365827 60.8167537,1.52949332 61.0218454,2.92413572 C61.1186933,3.65388694 60.8837177,4.38869447 60.3818179,4.92560726 C59.9624781,5.38112944 59.3798,5.65052844 58.7623009,5.67438473 C57.9691184,5.7042675 57.2090444,5.35383113 56.7149202,4.73042829 C56.1431496,3.94752367 55.9765787,2.93834376 56.2662663,2.01223177 C56.5559539,1.08611979 57.2673484,0.353534879 58.1823865,0.0390357924 Z" id="mark" fill="#003367"></path>
    </g>
</svg>